<svg xmlns="http://www.w3.org/2000/svg" viewBox="0 0 24 24">
  <path
    fill="#EA4335"
    d="M12 10.2v3.9h5.5c-.2 1.3-1.5 3.9-5.5 3.9c-3.3 0-6-2.7-6-6s2.7-6 6-6c1.9 0 3.1.8 3.8 1.5l2.6-2.5C16.8 3.5 14.6 2.5 12 2.5C6.8 2.5 2.5 6.8 2.5 12s4.3 9.5 9.5 9.5c5.5 0 9.2-3.9 9.2-9.3c0-.6-.1-1.1-.2-1.6z"
  />
  <path
    fill="#4285F4"
    d="M21.2 10.4H12v3.8h5.3c-.2 1.2-1.4 3.6-5.3 3.6v3.7h.1c5.4 0 9.1-3.8 9.1-9.2c0-.6 0-1.2-.1-1.9z"
  />
  <path
    fill="#FBBC05"
    d="M4.4 7.6l3.1 2.3c.8-1.6 2.4-2.7 4.5-2.7c1.8 0 3.1.8 3.8 1.5l2.6-2.5C16.8 3.5 14.6 2.5 12 2.5C8.4 2.5 5.3 4.5 4 7.5z"
  />
  <path
    fill="#34A853"
    d="M12 21.5c2.5 0 4.7-.8 6.2-2.3l-2.9-2.3c-.8.6-1.9 1.1-3.3 1.1c-2.6 0-4.8-1.8-5.6-4.2L3.2 16c1.3 3.2 4.5 5.5 8.8 5.5z"
  />
</svg>
